<svg viewBox="0 0 1200 900" xmlns="http://www.w3.org/2000/svg" font-family="'Onest', 'Outfit', 'Plus Jakarta Sans', sans-serif">
  <defs>
    <linearGradient id="redGrad" x1="0%" y1="0%" x2="100%" y2="100%">
      <stop offset="0%" stop-color="#c03030"/>
      <stop offset="50%" stop-color="#e8342b"/>
      <stop offset="100%" stop-color="#ff6b5a"/>
    </linearGradient>
    <linearGradient id="cardGrad" x1="0%" y1="0%" x2="100%" y2="100%">
      <stop offset="0%" stop-color="#7a1710"/>
      <stop offset="100%" stop-color="#c03030" stop-opacity="0.4"/>
    </linearGradient>
    <linearGradient id="bgGrad" x1="0%" y1="0%" x2="0%" y2="100%">
      <stop offset="0%" stop-color="#0c0c14"/>
      <stop offset="100%" stop-color="#060609"/>
    </linearGradient>
    <clipPath id="clip1">
      <rect x="0" y="0" width="1200" height="900" rx="0"/>
    </clipPath>
  </defs>

  <!-- ── Background ── -->
  <rect width="1200" height="900" fill="url(#bgGrad)"/>

  <!-- ── Subtle grid texture ── -->
  <g opacity="0.03">
    <line x1="0" y1="100" x2="1200" y2="100" stroke="#eceaf5" stroke-width="0.5"/>
    <line x1="0" y1="200" x2="1200" y2="200" stroke="#eceaf5" stroke-width="0.5"/>
    <line x1="0" y1="300" x2="1200" y2="300" stroke="#eceaf5" stroke-width="0.5"/>
    <line x1="0" y1="400" x2="1200" y2="400" stroke="#eceaf5" stroke-width="0.5"/>
    <line x1="0" y1="500" x2="1200" y2="500" stroke="#eceaf5" stroke-width="0.5"/>
    <line x1="0" y1="600" x2="1200" y2="600" stroke="#eceaf5" stroke-width="0.5"/>
    <line x1="0" y1="700" x2="1200" y2="700" stroke="#eceaf5" stroke-width="0.5"/>
    <line x1="0" y1="800" x2="1200" y2="800" stroke="#eceaf5" stroke-width="0.5"/>
    <line x1="100" y1="0" x2="100" y2="900" stroke="#eceaf5" stroke-width="0.5"/>
    <line x1="200" y1="0" x2="200" y2="900" stroke="#eceaf5" stroke-width="0.5"/>
    <line x1="300" y1="0" x2="300" y2="900" stroke="#eceaf5" stroke-width="0.5"/>
    <line x1="400" y1="0" x2="400" y2="900" stroke="#eceaf5" stroke-width="0.5"/>
    <line x1="500" y1="0" x2="500" y2="900" stroke="#eceaf5" stroke-width="0.5"/>
    <line x1="600" y1="0" x2="600" y2="900" stroke="#eceaf5" stroke-width="0.5"/>
    <line x1="700" y1="0" x2="700" y2="900" stroke="#eceaf5" stroke-width="0.5"/>
    <line x1="800" y1="0" x2="800" y2="900" stroke="#eceaf5" stroke-width="0.5"/>
    <line x1="900" y1="0" x2="900" y2="900" stroke="#eceaf5" stroke-width="0.5"/>
    <line x1="1000" y1="0" x2="1000" y2="900" stroke="#eceaf5" stroke-width="0.5"/>
    <line x1="1100" y1="0" x2="1100" y2="900" stroke="#eceaf5" stroke-width="0.5"/>
  </g>

  <!-- ══════════════════════════════════════════ -->
  <!-- SECTION 1: LOGO + BRAND NAME (top-left) -->
  <!-- ══════════════════════════════════════════ -->
  <g transform="translate(60, 60)">
    <!-- Logo star -->
    <g transform="translate(0,0) scale(1.4)">
      <path d="M24 2c2.2 13.8 7.9 19.6 22 22-14.1 2.4-19.8 8.2-22 22-2.2-13.8-7.9-19.6-22-22 14.1-2.4 19.8-8.2 22-22Z" fill="url(#redGrad)"/>
    </g>
    <!-- Brand name -->
    <text x="80" y="26" font-size="28" font-weight="600" fill="#eceaf5" letter-spacing="-0.5">Marwah K</text>
    <!-- Tagline -->
    <text x="80" y="48" font-size="13" font-weight="400" fill="rgba(236,234,245,0.5)" letter-spacing="0.5">Growth Efficient Obsessed.</text>
    <!-- Location pill -->
    <rect x="80" y="60" width="140" height="22" rx="11" fill="rgba(236,234,245,0.06)" stroke="rgba(236,234,245,0.12)" stroke-width="1"/>
    <text x="92" y="75" font-size="11" font-weight="500" fill="rgba(236,234,245,0.6)" letter-spacing="0.5">· Jakarta, Indonesia</text>
  </g>

  <!-- Label: Brand Guide -->
  <text x="1140" y="92" font-size="11" font-weight="600" fill="rgba(236,234,245,0.3)" text-anchor="end" letter-spacing="1.5">BRAND GUIDE</text>

  <!-- Divider line -->
  <line x1="60" y1="120" x2="1140" y2="120" stroke="rgba(236,234,245,0.08)" stroke-width="1"/>

  <!-- ══════════════════════════════════════════ -->
  <!-- SECTION 2: COLOR PALETTE -->
  <!-- ══════════════════════════════════════════ -->
  <g transform="translate(60, 148)">
    <!-- Section label -->
    <text x="0" y="0" font-size="10" font-weight="600" fill="rgba(236,234,245,0.35)" letter-spacing="2">COLOR PALETTE</text>

    <!-- Row 1: Dark/BG colors -->
    <!-- Swatch 1: #060609 -->
    <rect x="0" y="16" width="90" height="72" rx="10" fill="#060609" stroke="rgba(236,234,245,0.15)" stroke-width="1"/>
    <text x="8" y="72" font-size="9.5" font-weight="600" fill="rgba(236,234,245,0.8)">#060609</text>
    <text x="8" y="84" font-size="9" fill="rgba(236,234,245,0.4)">Deep Black</text>

    <!-- Swatch 2: #0b0b10 -->
    <rect x="100" y="16" width="90" height="72" rx="10" fill="#0b0b10" stroke="rgba(236,234,245,0.15)" stroke-width="1"/>
    <text x="108" y="72" font-size="9.5" font-weight="600" fill="rgba(236,234,245,0.8)">#0b0b10</text>
    <text x="108" y="84" font-size="9" fill="rgba(236,234,245,0.4)">Dark Navy</text>

    <!-- Swatch 3: #131320 -->
    <rect x="200" y="16" width="90" height="72" rx="10" fill="#131320" stroke="rgba(236,234,245,0.1)" stroke-width="1"/>
    <text x="208" y="72" font-size="9.5" font-weight="600" fill="rgba(236,234,245,0.8)">#131320</text>
    <text x="208" y="84" font-size="9" fill="rgba(236,234,245,0.4)">Dark Surface</text>

    <!-- Swatch 4: #1c1c2a -->
    <rect x="300" y="16" width="90" height="72" rx="10" fill="#1c1c2a" stroke="rgba(236,234,245,0.1)" stroke-width="1"/>
    <text x="308" y="72" font-size="9.5" font-weight="600" fill="rgba(236,234,245,0.8)">#1c1c2a</text>
    <text x="308" y="84" font-size="9" fill="rgba(236,234,245,0.4)">Card Surface</text>

    <!-- Swatch 5: #b92b2b (Brand Red) — larger, primary accent -->
    <rect x="420" y="8" width="108" height="88" rx="12" fill="#b92b2b"/>
    <text x="428" y="71" font-size="9.5" font-weight="700" fill="#fff">#b92b2b</text>
    <text x="428" y="85" font-size="9" fill="rgba(255,255,255,0.7)">Brand Red</text>
    <!-- PRIMARY tag -->
    <rect x="432" y="13" width="56" height="18" rx="9" fill="rgba(255,255,255,0.2)"/>
    <text x="460" y="25" font-size="9" font-weight="700" fill="#fff" text-anchor="middle" letter-spacing="1">PRIMARY</text>

    <!-- Swatch 6: #c03030 -->
    <rect x="540" y="16" width="90" height="72" rx="10" fill="#c03030"/>
    <text x="548" y="72" font-size="9.5" font-weight="600" fill="#fff">#c03030</text>
    <text x="548" y="84" font-size="9" fill="rgba(255,255,255,0.6)">Red Bright</text>

    <!-- Swatch 7: #e8342b -->
    <rect x="640" y="16" width="90" height="72" rx="10" fill="#e8342b"/>
    <text x="648" y="72" font-size="9.5" font-weight="600" fill="#fff">#e8342b</text>
    <text x="648" y="84" font-size="9" fill="rgba(255,255,255,0.6)">Red Vivid</text>

    <!-- Swatch 8: #ff6b5a -->
    <rect x="740" y="16" width="90" height="72" rx="10" fill="#ff6b5a"/>
    <text x="748" y="72" font-size="9.5" font-weight="600" fill="#fff">#ff6b5a</text>
    <text x="748" y="84" font-size="9" fill="rgba(255,255,255,0.6)">Red Light</text>

    <!-- Swatch 9: #ffb3a4 -->
    <rect x="840" y="16" width="90" height="72" rx="10" fill="#ffb3a4"/>
    <text x="848" y="72" font-size="9.5" font-weight="600" fill="#333">#ffb3a4</text>
    <text x="848" y="84" font-size="9" fill="rgba(0,0,0,0.4)">Red Pale</text>

    <!-- Swatch 10: #eceaf5 (Text Primary) -->
    <rect x="960" y="16" width="90" height="72" rx="10" fill="#eceaf5"/>
    <text x="968" y="72" font-size="9.5" font-weight="600" fill="#060609">#eceaf5</text>
    <text x="968" y="84" font-size="9" fill="rgba(0,0,0,0.45)">Text Primary</text>

    <!-- Gradient bar -->
    <defs>
      <linearGradient id="fullGrad" x1="0%" y1="0%" x2="100%" y2="0%">
        <stop offset="0%" stop-color="#060609"/>
        <stop offset="30%" stop-color="#1c1c2a"/>
        <stop offset="50%" stop-color="#7a1710"/>
        <stop offset="65%" stop-color="#c03030"/>
        <stop offset="80%" stop-color="#ff6b5a"/>
        <stop offset="100%" stop-color="#eceaf5"/>
      </linearGradient>
    </defs>
    <rect x="0" y="105" width="1080" height="8" rx="4" fill="url(#fullGrad)"/>
  </g>

  <!-- Divider -->
  <line x1="60" y1="290" x2="1140" y2="290" stroke="rgba(236,234,245,0.08)" stroke-width="1"/>

  <!-- ══════════════════════════════════════════ -->
  <!-- SECTION 3: TYPOGRAPHY -->
  <!-- ══════════════════════════════════════════ -->
  <g transform="translate(60, 310)">
    <text x="0" y="0" font-size="10" font-weight="600" fill="rgba(236,234,245,0.35)" letter-spacing="2">TYPOGRAPHY — ONEST</text>

    <!-- H1 sample -->
    <text x="0" y="56" font-size="44" font-weight="600" fill="#eceaf5" letter-spacing="-1.5">Driving growth.</text>
    <text x="780" y="32" font-size="10" fill="rgba(236,234,245,0.35)" letter-spacing="1">H1 HERO · 44px · SEMIBOLD</text>

    <!-- H2 sample -->
    <text x="0" y="100" font-size="28" font-weight="600" fill="#eceaf5" letter-spacing="-0.8">Selected Work</text>
    <text x="780" y="86" font-size="10" fill="rgba(236,234,245,0.35)" letter-spacing="1">H2 SECTION · 28px · SEMIBOLD</text>

    <!-- H3 sample -->
    <text x="0" y="134" font-size="20" font-weight="500" fill="#eceaf5" letter-spacing="-0.3">BD Portfolio · AHA Commerce</text>
    <text x="780" y="122" font-size="10" fill="rgba(236,234,245,0.35)" letter-spacing="1">H3 CARD · 20px · MEDIUM</text>

    <!-- Body sample -->
    <text x="0" y="163" font-size="14" font-weight="400" fill="rgba(236,234,245,0.7)">Operations-oriented BD Lead combining pipeline management, CRM optimization.</text>
    <text x="780" y="156" font-size="10" fill="rgba(236,234,245,0.35)" letter-spacing="1">BODY · 14px · REGULAR</text>

    <!-- Label sample -->
    <text x="0" y="186" font-size="12" font-weight="500" fill="rgba(236,234,245,0.45)" letter-spacing="1.5">STRATEGY &amp; LEADERSHIP · 2024</text>
    <text x="780" y="182" font-size="10" fill="rgba(236,234,245,0.35)" letter-spacing="1">LABEL · 12px · MEDIUM · UPPERCASE</text>

    <!-- Weight showcase -->
    <text x="0" y="212" font-size="14" font-weight="400" fill="rgba(236,234,245,0.6)">Regular 400</text>
    <text x="140" y="212" font-size="14" font-weight="500" fill="rgba(236,234,245,0.7)">Medium 500</text>
    <text x="280" y="212" font-size="14" font-weight="600" fill="#eceaf5">Semibold 600</text>
    <text x="420" y="212" font-size="14" font-weight="700" fill="#eceaf5">Bold 700</text>
  </g>

  <!-- Divider -->
  <line x1="60" y1="550" x2="1140" y2="550" stroke="rgba(236,234,245,0.08)" stroke-width="1"/>

  <!-- ══════════════════════════════════════════ -->
  <!-- SECTION 4: UI COMPONENTS -->
  <!-- ══════════════════════════════════════════ -->
  <g transform="translate(60, 570)">
    <text x="0" y="0" font-size="10" font-weight="600" fill="rgba(236,234,245,0.35)" letter-spacing="2">UI COMPONENTS</text>

    <!-- Pill Button: Dark (Primary CTA) -->
    <rect x="0" y="18" width="160" height="44" rx="22" fill="#eceaf5"/>
    <text x="30" y="44" font-size="13" font-weight="500" fill="#060609">Let's Connect</text>
    <circle cx="138" cy="40" r="14" fill="#060609"/>
    <text x="138" y="45" font-size="12" fill="#eceaf5" text-anchor="middle">→</text>

    <!-- Pill Button: Outline -->
    <rect x="180" y="18" width="150" height="44" rx="22" fill="none" stroke="rgba(236,234,245,0.2)" stroke-width="1"/>
    <text x="208" y="44" font-size="13" font-weight="500" fill="#eceaf5">See my work</text>
    <circle cx="318" cy="40" r="14" fill="rgba(236,234,245,0.1)" stroke="rgba(236,234,245,0.12)" stroke-width="1"/>
    <text x="318" y="45" font-size="12" fill="#eceaf5" text-anchor="middle">→</text>

    <!-- Tag chip -->
    <rect x="355" y="24" width="120" height="32" rx="16" fill="none" stroke="rgba(236,234,245,0.18)" stroke-width="1"/>
    <text x="415" y="44" font-size="12" fill="#eceaf5" text-anchor="middle">Team Leadership</text>

    <!-- Eyebrow label -->
    <circle cx="510" cy="36" r="3" fill="rgba(236,234,245,0.5)"/>
    <text x="522" y="40" font-size="13" font-weight="500" fill="rgba(236,234,245,0.7)">Portfolio</text>

    <!-- Social chip: accent -->
    <circle cx="640" cy="40" r="18" fill="#b92b2b"/>
    <text x="640" y="46" font-size="13" fill="#fff" text-anchor="middle" font-weight="600">in</text>

    <!-- Social chip: muted -->
    <circle cx="680" cy="40" r="18" fill="#1c1c2a"/>
    <text x="680" y="46" font-size="12" fill="rgba(236,234,245,0.7)" text-anchor="middle">ig</text>

    <!-- Card example -->
    <rect x="740" y="10" width="380" height="80" rx="16" fill="#131320" stroke="rgba(236,234,245,0.08)" stroke-width="1"/>
    <text x="762" y="35" font-size="9" font-weight="600" fill="rgba(236,234,245,0.35)" letter-spacing="1">STRATEGY &amp; LEADERSHIP · 2024</text>
    <text x="762" y="57" font-size="15" font-weight="600" fill="#eceaf5">BD Team Leadership</text>
    <text x="762" y="74" font-size="11" fill="rgba(236,234,245,0.5)">47 brand partnerships in 9 months</text>
    <circle cx="1095" cy="48" r="14" fill="rgba(236,234,245,0.07)" stroke="rgba(236,234,245,0.1)" stroke-width="1"/>
    <text x="1095" y="54" font-size="12" fill="#eceaf5" text-anchor="middle">↗</text>
  </g>

  <!-- Divider -->
  <line x1="60" y1="678" x2="1140" y2="678" stroke="rgba(236,234,245,0.08)" stroke-width="1"/>

  <!-- ══════════════════════════════════════════ -->
  <!-- SECTION 5: LOGO VARIATIONS + STATS ROW -->
  <!-- ══════════════════════════════════════════ -->
  <g transform="translate(60, 698)">
    <text x="0" y="0" font-size="10" font-weight="600" fill="rgba(236,234,245,0.35)" letter-spacing="2">LOGO &amp; STATS</text>

    <!-- Logo: Large -->
    <g transform="translate(0, 16) scale(2)">
      <path d="M24 2c2.2 13.8 7.9 19.6 22 22-14.1 2.4-19.8 8.2-22 22-2.2-13.8-7.9-19.6-22-22 14.1-2.4 19.8-8.2 22-22Z" fill="#c03030"/>
    </g>
    <!-- Logo: Medium -->
    <g transform="translate(120, 28) scale(1)">
      <path d="M24 2c2.2 13.8 7.9 19.6 22 22-14.1 2.4-19.8 8.2-22 22-2.2-13.8-7.9-19.6-22-22 14.1-2.4 19.8-8.2 22-22Z" fill="#b92b2b"/>
    </g>
    <!-- Logo: Small -->
    <g transform="translate(200, 36) scale(0.6)">
      <path d="M24 2c2.2 13.8 7.9 19.6 22 22-14.1 2.4-19.8 8.2-22 22-2.2-13.8-7.9-19.6-22-22 14.1-2.4 19.8-8.2 22-22Z" fill="rgba(236,234,245,0.3)"/>
    </g>

    <!-- Stats row -->
    <!-- Stat 1 -->
    <rect x="280" y="10" width="180" height="78" rx="12" fill="#131320" stroke="rgba(236,234,245,0.06)" stroke-width="1"/>
    <text x="300" y="54" font-size="36" font-weight="600" fill="#eceaf5" letter-spacing="-1">55<tspan font-size="20">+</tspan></text>
    <text x="300" y="74" font-size="10" fill="rgba(236,234,245,0.45)">Brand deals closed</text>

    <!-- Stat 2 -->
    <rect x="472" y="10" width="180" height="78" rx="12" fill="#131320" stroke="rgba(236,234,245,0.06)" stroke-width="1"/>
    <text x="492" y="54" font-size="36" font-weight="600" fill="#eceaf5" letter-spacing="-1">56<tspan font-size="20">%</tspan></text>
    <text x="492" y="74" font-size="10" fill="rgba(236,234,245,0.45)">Revenue growth</text>

    <!-- Stat 3 -->
    <rect x="664" y="10" width="180" height="78" rx="12" fill="#131320" stroke="rgba(236,234,245,0.06)" stroke-width="1"/>
    <text x="684" y="54" font-size="36" font-weight="600" fill="#eceaf5" letter-spacing="-1">30<tspan font-size="20">%</tspan></text>
    <text x="684" y="74" font-size="10" fill="rgba(236,234,245,0.45)">Conversion lift</text>

    <!-- Stat 4 -->
    <rect x="856" y="10" width="180" height="78" rx="12" fill="#131320" stroke="rgba(236,234,245,0.06)" stroke-width="1"/>
    <text x="876" y="54" font-size="36" font-weight="600" fill="#eceaf5" letter-spacing="-1">2<tspan font-size="20">+</tspan></text>
    <text x="876" y="74" font-size="10" fill="rgba(236,234,245,0.45)">Years Top Performer</text>
  </g>

  <!-- ══════════════════════════════════════════ -->
  <!-- FOOTER -->
  <!-- ══════════════════════════════════════════ -->
  <line x1="60" y1="846" x2="1140" y2="846" stroke="rgba(236,234,245,0.06)" stroke-width="1"/>
  <text x="60" y="870" font-size="11" fill="rgba(236,234,245,0.3)">marwahkhairunnisa30@gmail.com</text>
  <text x="600" y="870" font-size="11" fill="rgba(236,234,245,0.3)" text-anchor="middle">linkedin.com/in/marwahkhr30</text>
  <text x="1140" y="870" font-size="11" fill="rgba(236,234,245,0.3)" text-anchor="end">© 2026 Marwah Khairunnisa</text>

  <!-- Watermark star (decorative, bottom right) -->
  <g transform="translate(980, 540) scale(5)" opacity="0.03">
    <path d="M24 2c2.2 13.8 7.9 19.6 22 22-14.1 2.4-19.8 8.2-22 22-2.2-13.8-7.9-19.6-22-22 14.1-2.4 19.8-8.2 22-22Z" fill="#eceaf5"/>
  </g>
</svg>
